<svg width="348" height="213" viewBox="0 0 348 213" fill="none" xmlns="http://www.w3.org/2000/svg">
<path d="M170.555 88.1893C217.617 79.5483 260.589 74.4692 292.017 73.2396C307.734 72.6246 320.544 72.9732 329.527 74.3139C334.022 74.9848 337.529 75.8998 339.956 77.0488C342.404 78.2073 343.632 79.5428 343.829 80.9836C344.026 82.4243 343.214 84.1337 341.195 86.1121C339.192 88.0746 336.101 90.2009 332.005 92.4492C323.818 96.9424 311.729 101.863 296.617 106.908C266.399 116.997 224.177 127.56 177.114 136.201C130.052 144.842 87.0794 149.922 55.6515 151.151C39.9338 151.766 27.1245 151.418 18.1411 150.077C13.6461 149.406 10.1396 148.491 7.7117 147.342C5.26426 146.184 4.03641 144.849 3.83938 143.408C3.64254 141.967 4.45434 140.257 6.47341 138.279C8.47616 136.316 11.5672 134.19 15.6633 131.942C23.8497 127.448 35.9391 122.528 51.0515 117.483C81.2689 107.394 123.492 96.8304 170.555 88.1893Z" stroke="black"/>
<path d="M177.443 81.7976C224.505 90.4386 266.728 101.002 296.945 111.091C312.057 116.136 324.147 121.056 332.333 125.55C336.429 127.798 339.52 129.924 341.523 131.887C343.542 133.865 344.354 135.575 344.157 137.016C343.96 138.457 342.732 139.792 340.285 140.95C337.857 142.099 334.35 143.014 329.855 143.685C320.872 145.026 308.063 145.374 292.345 144.759C260.917 143.53 217.946 138.451 170.883 129.81C123.82 121.168 81.5973 110.605 51.3799 100.516C36.2675 95.4706 24.178 90.5505 15.9917 86.0572C11.8956 83.809 8.80451 81.6827 6.80177 79.7201C4.7829 77.7417 3.97098 76.0323 4.16761 74.5917C4.36446 73.1509 5.59237 71.8153 8.04005 70.6569C10.4679 69.5078 13.9745 68.5929 18.4694 67.922C27.4529 66.5813 40.2622 66.2327 55.9799 66.8477C87.4077 68.0773 130.38 73.1565 177.443 81.7976Z" stroke="black"/>
<path d="M197.905 105.818C196.816 135.011 193.064 161.449 187.887 180.588C185.298 190.162 182.358 197.882 179.234 203.203C177.672 205.864 176.076 207.902 174.475 209.273C172.877 210.641 171.298 211.325 169.745 211.338C168.193 211.351 166.663 210.693 165.167 209.352C163.667 208.007 162.223 205.995 160.859 203.359C158.13 198.087 155.766 190.412 153.889 180.877C150.139 161.813 148.359 135.423 149.449 106.229C150.539 77.0365 154.29 50.5996 159.467 31.4604C162.057 21.8867 164.996 14.1659 168.12 8.84434C169.682 6.18371 171.277 4.14578 172.878 2.77492C174.476 1.40699 176.056 0.722791 177.608 0.709495C179.161 0.696322 180.69 1.35426 182.187 2.69593C183.687 4.04049 185.131 6.05243 186.496 8.68841C189.224 13.9603 191.589 21.6361 193.465 31.1719C197.216 50.2354 198.995 76.6253 197.905 105.818Z" stroke="black"/>
<circle cx="174.5" cy="106.5" r="10.5" fill="black"/>
</svg>
